<svg version="1.0" xmlns="http://www.w3.org/2000/svg"
 width="600.000000pt" height="119.000000pt" viewBox="0 0 600.000000 119.000000"
 preserveAspectRatio="xMidYMid meet">
<g transform="translate(0.000000,119.000000) scale(0.100000,-0.100000)"
fill="#000000" stroke="none">
<path d="M2416 1159 c-29 -34 -32 -50 -14 -82 16 -31 39 -46 68 -46 39 0 80
42 80 83 0 28 -50 76 -80 76 -19 0 -36 -10 -54 -31z"/>
<path d="M1520 1149 c-123 -54 -189 -180 -155 -296 24 -83 74 -130 210 -197
107 -53 155 -92 155 -126 0 -32 -32 -70 -68 -79 -76 -22 -153 -4 -242 55 -28
18 -44 24 -51 17 -13 -13 -89 -143 -89 -153 0 -14 159 -88 216 -100 144 -30
308 8 373 87 28 34 29 39 16 58 -18 24 -41 73 -48 100 -3 11 -15 47 -26 79
-12 33 -21 80 -21 106 0 42 -3 49 -27 61 -211 106 -238 131 -208 189 28 53
108 60 244 19 8 -3 14 7 17 29 5 44 30 102 44 102 24 0 -17 28 -73 48 -77 29
-202 29 -267 1z"/>
<path d="M4532 1145 c-150 -58 -249 -160 -301 -309 -17 -49 -18 -179 -2 -232
46 -149 158 -263 321 -325 23 -10 76 -14 160 -13 110 1 132 4 185 27 85 36 87
42 42 133 -31 61 -41 74 -55 69 -101 -43 -119 -47 -184 -42 -100 7 -172 46
-223 120 -33 49 -40 67 -43 123 -11 161 96 273 269 282 64 3 86 0 137 -21 l60
-24 40 78 c22 42 37 81 33 87 -3 5 -21 17 -40 26 -101 52 -291 62 -399 21z"/>
<path d="M5318 1151 c-70 -27 -109 -55 -165 -114 -88 -93 -123 -184 -123 -322
0 -209 103 -365 284 -431 59 -22 60 -22 34 -33 -31 -12 -108 -78 -108 -93 0
-6 9 -23 20 -38 l21 -29 35 21 c57 33 139 28 254 -17 157 -61 269 -48 335 39
l26 34 -30 66 -31 66 -36 -25 c-30 -21 -49 -25 -105 -25 -37 0 -79 4 -93 10
-28 10 -35 30 -12 30 27 0 99 45 146 91 61 58 115 170 129 266 30 198 -72 399
-248 486 -61 30 -74 32 -176 34 -86 2 -120 -2 -157 -16z m217 -182 c78 -21
140 -104 151 -202 22 -184 -66 -307 -218 -307 -106 0 -173 45 -208 137 -42
112 -19 245 54 318 60 60 134 78 221 54z"/>
<path d="M57 1152 c-5 -7 19 -70 68 -177 12 -27 26 -61 30 -75 4 -14 18 -47
30 -75 13 -27 40 -90 60 -140 20 -49 47 -112 60 -140 12 -27 26 -61 30 -75 4
-14 18 -47 30 -75 13 -27 30 -67 39 -88 l15 -38 77 3 77 3 89 215 c48 118 93
224 98 235 29 60 170 409 170 421 0 11 -22 14 -104 14 l-104 0 -57 -147 c-32
-82 -64 -166 -72 -188 -8 -22 -19 -49 -23 -60 -5 -11 -21 -54 -37 -96 -15 -41
-32 -77 -37 -80 -8 -4 -34 60 -161 396 -32 83 -62 156 -67 163 -12 13 -203 18
-211 4z"/>
<path d="M990 1150 c0 -5 0 -205 0 -442 l0 -433 95 -3 95 -3 0 446 0 445 -95
0 c-57 0 -95 -4 -95 -10z"/>
<path d="M2998 1153 c-52 -4 -58 -6 -58 -26 0 -17 2 -19 10 -7 7 11 15 2 34
-40 14 -30 26 -60 26 -66 0 -7 27 -15 65 -19 53 -5 65 -10 71 -28 3 -11 5
-172 3 -356 l-4 -336 98 -3 97 -3 0 361 0 360 105 0 105 0 0 85 0 85 -247 -2
c-137 -1 -274 -3 -305 -5z"/>
<path d="M3630 715 l0 -445 250 0 250 0 0 90 0 89 -152 3 -153 3 0 85 0 85
145 5 145 5 3 83 c2 62 0 82 -10 83 -7 0 -69 0 -136 -1 -82 -1 -129 3 -138 11
-10 8 -14 33 -14 79 0 106 -10 100 161 100 l149 0 0 85 0 85 -250 0 -250 0 0
-445z"/>
<path d="M2076 1034 c-30 -31 -33 -60 -10 -92 24 -34 59 -45 92 -28 56 29 64
85 19 126 -29 28 -69 25 -101 -6z"/>
<path d="M2769 1047 c-31 -24 -42 -56 -28 -88 25 -61 96 -70 133 -17 23 32 20
61 -10 92 -29 28 -68 34 -95 13z"/>
<path d="M1950 730 c-45 -45 -11 -130 52 -130 38 0 78 40 78 78 0 61 -86 96
-130 52z"/>
<path d="M2882 727 c-65 -69 37 -171 106 -107 29 27 29 83 2 110 -28 28 -81
26 -108 -3z"/>
<path d="M2059 421 c-32 -32 -35 -47 -18 -85 16 -35 61 -52 98 -36 60 24 63
112 5 139 -38 17 -53 14 -85 -18z"/>
<path d="M2793 438 c-33 -16 -48 -61 -33 -97 24 -60 112 -63 139 -5 17 38 14
53 -18 85 -31 30 -52 35 -88 17z"/>
<path d="M2443 280 c-55 -22 -65 -88 -21 -130 38 -35 90 -23 116 27 17 32 15
49 -10 77 -27 29 -55 38 -85 26z"/>
</g>
</svg>
